<svg xmlns="http://www.w3.org/2000/svg" width="1280" height="760" viewBox="0 0 1280 760" role="img" aria-labelledby="title desc">
<title id="title">Carrier multiplicity and certified compression</title>
<desc id="desc">Every valid origin-library-schedule instance is shown; medians summarize its tagged requirements.</desc>
<rect width="100%" height="100%" fill="#FFFFFF"/>
<text x="42" y="38" font-family="Helvetica,Arial,sans-serif" font-size="22" text-anchor="start" font-weight="bold" fill="#172B4D">Carrier multiplicity and certified compression</text>
<text x="42" y="62" font-family="Helvetica,Arial,sans-serif" font-size="11" text-anchor="start" font-weight="normal" fill="#172B4D">Every valid origin-library-schedule instance is shown; medians summarize its tagged requirements.</text>
<rect x="110.0" y="110.0" width="1080.0" height="520.0" fill="none" stroke="#344054"/>
<circle cx="119.75" cy="140.1858304175987" r="4" fill="#175CD3" stroke="#175CD3" stroke-width="1.5"/>
<circle cx="119.75" cy="140.24346034424667" r="4" fill="#175CD3" stroke="#175CD3" stroke-width="1.5"/>
<circle cx="119.75" cy="140.9001882710441" r="4" fill="#175CD3" stroke="#175CD3" stroke-width="1.5"/>
<rect x="130.3" y="111.88303018767898" width="8" height="8" fill="#B54708" stroke="#B54708" stroke-width="1.5"/>
<rect x="130.3" y="112.17383060896783" width="8" height="8" fill="#B54708" stroke="#B54708" stroke-width="1.5"/>
<rect x="130.3" y="113.02709214540774" width="8" height="8" fill="#B54708" stroke="#B54708" stroke-width="1.5"/>
<path d="M 722.0 105.2726267472668 L 727.0 114.2726267472668 L 717.0 114.2726267472668 Z" fill="#027A48" stroke="#027A48" stroke-width="1.5"/>
<path d="M 722.0 105.24862502131855 L 727.0 114.24862502131855 L 717.0 114.24862502131855 Z" fill="#027A48" stroke="#027A48" stroke-width="1.5"/>
<path d="M 722.0 105.20887216271667 L 727.0 114.20887216271667 L 717.0 114.20887216271667 Z" fill="#027A48" stroke="#027A48" stroke-width="1.5"/>
<circle cx="129.65" cy="124.84193528620294" r="4" fill="#FFFFFF" stroke="#175CD3" stroke-width="1.5"/>
<circle cx="129.65" cy="124.37209208813208" r="4" fill="#FFFFFF" stroke="#175CD3" stroke-width="1.5"/>
<circle cx="129.65" cy="123.63222533315472" r="4" fill="#FFFFFF" stroke="#175CD3" stroke-width="1.5"/>
<rect x="168.1" y="110.18208263094331" width="8" height="8" fill="#FFFFFF" stroke="#B54708" stroke-width="1.5"/>
<rect x="168.1" y="110.02173993895343" width="8" height="8" fill="#FFFFFF" stroke="#B54708" stroke-width="1.5"/>
<rect x="168.1" y="109.7237886236256" width="8" height="8" fill="#FFFFFF" stroke="#B54708" stroke-width="1.5"/>
<path d="M 1096.4 105.0790361839613 L 1101.4 114.0790361839613 L 1091.4 114.0790361839613 Z" fill="#FFFFFF" stroke="#027A48" stroke-width="1.5"/>
<path d="M 1096.4 105.05576808741009 L 1101.4 114.05576808741009 L 1091.4 114.05576808741009 Z" fill="#FFFFFF" stroke="#027A48" stroke-width="1.5"/>
<path d="M 1096.4 105.03453594930721 L 1101.4 114.03453594930721 L 1091.4 114.03453594930721 Z" fill="#FFFFFF" stroke="#027A48" stroke-width="1.5"/>
<circle cx="130.4" cy="123.45304822689552" r="4" fill="#175CD3" stroke="#175CD3" stroke-width="1.5"/>
<circle cx="130.4" cy="123.12121806760612" r="4" fill="#175CD3" stroke="#175CD3" stroke-width="1.5"/>
<circle cx="130.4" cy="122.78035965507966" r="4" fill="#175CD3" stroke="#175CD3" stroke-width="1.5"/>
<rect x="173.2" y="109.79990921665721" width="8" height="8" fill="#B54708" stroke="#B54708" stroke-width="1.5"/>
<rect x="173.2" y="109.68377016791958" width="8" height="8" fill="#B54708" stroke="#B54708" stroke-width="1.5"/>
<rect x="173.2" y="109.55883503532226" width="8" height="8" fill="#B54708" stroke="#B54708" stroke-width="1.5"/>
<path d="M 1190.0 105.05161085415965 L 1195.0 114.05161085415965 L 1185.0 114.05161085415965 Z" fill="#027A48" stroke="#027A48" stroke-width="1.5"/>
<path d="M 1190.0 105.0354596927403 L 1195.0 114.0354596927403 L 1185.0 114.0354596927403 Z" fill="#027A48" stroke="#027A48" stroke-width="1.5"/>
<path d="M 1190.0 105.00645135676996 L 1195.0 114.00645135676996 L 1185.0 114.00645135676996 Z" fill="#027A48" stroke="#027A48" stroke-width="1.5"/>
<circle cx="128.45" cy="123.54371351269705" r="4" fill="#FFFFFF" stroke="#175CD3" stroke-width="1.5"/>
<circle cx="128.45" cy="123.21808991674854" r="4" fill="#FFFFFF" stroke="#175CD3" stroke-width="1.5"/>
<circle cx="128.45" cy="122.87388393046584" r="4" fill="#FFFFFF" stroke="#175CD3" stroke-width="1.5"/>
<rect x="171.4" y="110.38692260356909" width="8" height="8" fill="#FFFFFF" stroke="#B54708" stroke-width="1.5"/>
<rect x="171.4" y="110.13363996405592" width="8" height="8" fill="#FFFFFF" stroke="#B54708" stroke-width="1.5"/>
<rect x="171.4" y="110.21422273015772" width="8" height="8" fill="#FFFFFF" stroke="#B54708" stroke-width="1.5"/>
<path d="M 1190.0 105.05161085415965 L 1195.0 114.05161085415965 L 1185.0 114.05161085415965 Z" fill="#FFFFFF" stroke="#027A48" stroke-width="1.5"/>
<path d="M 1190.0 105.03035932597624 L 1195.0 114.03035932597624 L 1185.0 114.03035932597624 Z" fill="#FFFFFF" stroke="#027A48" stroke-width="1.5"/>
<path d="M 1190.0 105.01096730650895 L 1195.0 114.01096730650895 L 1185.0 114.01096730650895 Z" fill="#FFFFFF" stroke="#027A48" stroke-width="1.5"/>
<circle cx="125.6" cy="125.31786146409561" r="4" fill="#FFFFFF" stroke="#175CD3" stroke-width="1.5"/>
<circle cx="125.6" cy="125.15963405672919" r="4" fill="#FFFFFF" stroke="#175CD3" stroke-width="1.5"/>
<circle cx="125.6" cy="126.26518081744764" r="4" fill="#FFFFFF" stroke="#175CD3" stroke-width="1.5"/>
<rect x="155.35" y="110.94768053527564" width="8" height="8" fill="#FFFFFF" stroke="#B54708" stroke-width="1.5"/>
<rect x="155.35" y="110.9164075427361" width="8" height="8" fill="#FFFFFF" stroke="#B54708" stroke-width="1.5"/>
<rect x="155.35" y="110.88081704865776" width="8" height="8" fill="#FFFFFF" stroke="#B54708" stroke-width="1.5"/>
<path d="M 1190.0 105.05161085415965 L 1195.0 114.05161085415965 L 1185.0 114.05161085415965 Z" fill="#FFFFFF" stroke="#027A48" stroke-width="1.5"/>
<path d="M 1190.0 105.02780914259425 L 1195.0 114.02780914259425 L 1185.0 114.02780914259425 Z" fill="#FFFFFF" stroke="#027A48" stroke-width="1.5"/>
<path d="M 1190.0 105.01999920598686 L 1195.0 114.01999920598686 L 1185.0 114.01999920598686 Z" fill="#FFFFFF" stroke="#027A48" stroke-width="1.5"/>
<circle cx="128.15" cy="125.31786146409561" r="4" fill="#175CD3" stroke="#175CD3" stroke-width="1.5"/>
<circle cx="128.15" cy="124.99156907648161" r="4" fill="#175CD3" stroke="#175CD3" stroke-width="1.5"/>
<circle cx="128.15" cy="125.07132183436639" r="4" fill="#175CD3" stroke="#175CD3" stroke-width="1.5"/>
<rect x="157.0" y="109.78208440806651" width="8" height="8" fill="#B54708" stroke="#B54708" stroke-width="1.5"/>
<rect x="157.0" y="109.72177888311181" width="8" height="8" fill="#B54708" stroke="#B54708" stroke-width="1.5"/>
<rect x="157.0" y="109.80503109315043" width="8" height="8" fill="#B54708" stroke="#B54708" stroke-width="1.5"/>
<path d="M 1190.0 105.05161085415965 L 1195.0 114.05161085415965 L 1185.0 114.05161085415965 Z" fill="#027A48" stroke="#027A48" stroke-width="1.5"/>
<path d="M 1190.0 105.04056005950426 L 1195.0 114.04056005950426 L 1185.0 114.04056005950426 Z" fill="#027A48" stroke="#027A48" stroke-width="1.5"/>
<path d="M 1190.0 105.01548325624788 L 1195.0 114.01548325624788 L 1185.0 114.01548325624788 Z" fill="#027A48" stroke="#027A48" stroke-width="1.5"/>
<circle cx="130.55" cy="123.408161478843" r="4" fill="#FFFFFF" stroke="#175CD3" stroke-width="1.5"/>
<circle cx="130.55" cy="123.55386161537884" r="4" fill="#FFFFFF" stroke="#175CD3" stroke-width="1.5"/>
<circle cx="130.55" cy="123.03897009741263" r="4" fill="#FFFFFF" stroke="#175CD3" stroke-width="1.5"/>
<rect x="162.55" y="110.36137380504591" width="8" height="8" fill="#FFFFFF" stroke="#B54708" stroke-width="1.5"/>
<rect x="162.55" y="110.21582229985911" width="8" height="8" fill="#FFFFFF" stroke="#B54708" stroke-width="1.5"/>
<rect x="162.55" y="110.23668150838337" width="8" height="8" fill="#FFFFFF" stroke="#B54708" stroke-width="1.5"/>
<path d="M 1190.0 105.05161085415965 L 1195.0 114.05161085415965 L 1185.0 114.05161085415965 Z" fill="#FFFFFF" stroke="#027A48" stroke-width="1.5"/>
<path d="M 1190.0 105.0354596927403 L 1195.0 114.0354596927403 L 1185.0 114.0354596927403 Z" fill="#FFFFFF" stroke="#027A48" stroke-width="1.5"/>
<path d="M 1190.0 105.00645135676996 L 1195.0 114.00645135676996 L 1185.0 114.00645135676996 Z" fill="#FFFFFF" stroke="#027A48" stroke-width="1.5"/>
<circle cx="127.55" cy="123.49823125711346" r="4" fill="#175CD3" stroke="#175CD3" stroke-width="1.5"/>
<circle cx="127.55" cy="123.8265478293666" r="4" fill="#175CD3" stroke="#175CD3" stroke-width="1.5"/>
<circle cx="127.55" cy="123.92378031248964" r="4" fill="#175CD3" stroke="#175CD3" stroke-width="1.5"/>
<rect x="155.05" y="109.75564036637441" width="8" height="8" fill="#B54708" stroke="#B54708" stroke-width="1.5"/>
<rect x="155.05" y="109.79869734039833" width="8" height="8" fill="#B54708" stroke="#B54708" stroke-width="1.5"/>
<rect x="155.05" y="109.90824515080185" width="8" height="8" fill="#B54708" stroke="#B54708" stroke-width="1.5"/>
<path d="M 1190.0 105.05161085415965 L 1195.0 114.05161085415965 L 1185.0 114.05161085415965 Z" fill="#027A48" stroke="#027A48" stroke-width="1.5"/>
<path d="M 1190.0 105.0354596927403 L 1195.0 114.0354596927403 L 1185.0 114.0354596927403 Z" fill="#027A48" stroke="#027A48" stroke-width="1.5"/>
<path d="M 1190.0 105.01096730650895 L 1195.0 114.01096730650895 L 1185.0 114.01096730650895 Z" fill="#027A48" stroke="#027A48" stroke-width="1.5"/>
<circle cx="127.25" cy="123.54371351269705" r="4" fill="#FFFFFF" stroke="#175CD3" stroke-width="1.5"/>
<circle cx="127.25" cy="123.33951759828459" r="4" fill="#FFFFFF" stroke="#175CD3" stroke-width="1.5"/>
<circle cx="127.25" cy="122.9549389444821" r="4" fill="#FFFFFF" stroke="#175CD3" stroke-width="1.5"/>
<rect x="154.0" y="110.86295683487681" width="8" height="8" fill="#FFFFFF" stroke="#B54708" stroke-width="1.5"/>
<rect x="154.0" y="110.61454518937572" width="8" height="8" fill="#FFFFFF" stroke="#B54708" stroke-width="1.5"/>
<rect x="154.0" y="110.47261007867415" width="8" height="8" fill="#FFFFFF" stroke="#B54708" stroke-width="1.5"/>
<path d="M 1190.0 105.05161085415965 L 1195.0 114.05161085415965 L 1185.0 114.05161085415965 Z" fill="#FFFFFF" stroke="#027A48" stroke-width="1.5"/>
<path d="M 1190.0 105.03035932597624 L 1195.0 114.03035932597624 L 1185.0 114.03035932597624 Z" fill="#FFFFFF" stroke="#027A48" stroke-width="1.5"/>
<path d="M 1190.0 105.0 L 1195.0 114.0 L 1185.0 114.0 Z" fill="#FFFFFF" stroke="#027A48" stroke-width="1.5"/>
<circle cx="127.55" cy="123.49823125711346" r="4" fill="#175CD3" stroke="#175CD3" stroke-width="1.5"/>
<circle cx="127.55" cy="123.22576523016457" r="4" fill="#175CD3" stroke="#175CD3" stroke-width="1.5"/>
<circle cx="127.55" cy="123.59016375542275" r="4" fill="#175CD3" stroke="#175CD3" stroke-width="1.5"/>
<rect x="161.95" y="110.31609037659113" width="8" height="8" fill="#B54708" stroke="#B54708" stroke-width="1.5"/>
<rect x="161.95" y="110.19715152910234" width="8" height="8" fill="#B54708" stroke="#B54708" stroke-width="1.5"/>
<rect x="161.95" y="110.47463802112958" width="8" height="8" fill="#B54708" stroke="#B54708" stroke-width="1.5"/>
<path d="M 1190.0 105.05161085415965 L 1195.0 114.05161085415965 L 1185.0 114.05161085415965 Z" fill="#027A48" stroke="#027A48" stroke-width="1.5"/>
<path d="M 1190.0 105.03035932597624 L 1195.0 114.03035932597624 L 1185.0 114.03035932597624 Z" fill="#027A48" stroke="#027A48" stroke-width="1.5"/>
<path d="M 1190.0 105.0 L 1195.0 114.0 L 1185.0 114.0 Z" fill="#027A48" stroke="#027A48" stroke-width="1.5"/>
<circle cx="130.55" cy="123.45304822689552" r="4" fill="#FFFFFF" stroke="#175CD3" stroke-width="1.5"/>
<circle cx="130.55" cy="123.25166776536331" r="4" fill="#FFFFFF" stroke="#175CD3" stroke-width="1.5"/>
<circle cx="130.55" cy="124.04361701009684" r="4" fill="#FFFFFF" stroke="#175CD3" stroke-width="1.5"/>
<rect x="171.1" y="109.79543820985123" width="8" height="8" fill="#FFFFFF" stroke="#B54708" stroke-width="1.5"/>
<rect x="171.1" y="109.71537431297426" width="8" height="8" fill="#FFFFFF" stroke="#B54708" stroke-width="1.5"/>
<rect x="171.1" y="109.97121366117896" width="8" height="8" fill="#FFFFFF" stroke="#B54708" stroke-width="1.5"/>
<path d="M 1190.0 105.05161085415965 L 1195.0 114.05161085415965 L 1185.0 114.05161085415965 Z" fill="#FFFFFF" stroke="#027A48" stroke-width="1.5"/>
<path d="M 1190.0 105.03290950935826 L 1195.0 114.03290950935826 L 1185.0 114.03290950935826 Z" fill="#FFFFFF" stroke="#027A48" stroke-width="1.5"/>
<path d="M 1190.0 105.01096730650895 L 1195.0 114.01096730650895 L 1185.0 114.01096730650895 Z" fill="#FFFFFF" stroke="#027A48" stroke-width="1.5"/>
<circle cx="125.9" cy="123.54371351269705" r="4" fill="#175CD3" stroke="#175CD3" stroke-width="1.5"/>
<circle cx="125.9" cy="123.71069283772054" r="4" fill="#175CD3" stroke="#175CD3" stroke-width="1.5"/>
<circle cx="125.9" cy="125.42565187518375" r="4" fill="#175CD3" stroke="#175CD3" stroke-width="1.5"/>
<rect x="163.3" y="110.38179015902669" width="8" height="8" fill="#B54708" stroke="#B54708" stroke-width="1.5"/>
<rect x="163.3" y="110.33515768715823" width="8" height="8" fill="#B54708" stroke="#B54708" stroke-width="1.5"/>
<rect x="163.3" y="110.80828215287364" width="8" height="8" fill="#B54708" stroke="#B54708" stroke-width="1.5"/>
<path d="M 1190.0 105.05161085415965 L 1195.0 114.05161085415965 L 1185.0 114.05161085415965 Z" fill="#027A48" stroke="#027A48" stroke-width="1.5"/>
<path d="M 1190.0 105.03035932597624 L 1195.0 114.03035932597624 L 1185.0 114.03035932597624 Z" fill="#027A48" stroke="#027A48" stroke-width="1.5"/>
<path d="M 1190.0 105.01096730650895 L 1195.0 114.01096730650895 L 1185.0 114.01096730650895 Z" fill="#027A48" stroke="#027A48" stroke-width="1.5"/>
<text x="650.0" y="670" font-family="Helvetica,Arial,sans-serif" font-size="11" text-anchor="middle" font-weight="normal" fill="#172B4D">median number of source carriers per tagged requirement</text>
<text x="20" y="95" font-family="Helvetica,Arial,sans-serif" font-size="10" text-anchor="start" font-weight="normal" fill="#172B4D">saving range: 0 to 1</text>
<circle cx="180" cy="715" r="4" fill="#175CD3" stroke="#175CD3" stroke-width="1.5"/>
<text x="190" y="719" font-family="Helvetica,Arial,sans-serif" font-size="9" text-anchor="start" font-weight="normal" fill="#172B4D">centralized_research_pool</text>
<rect x="526" y="711" width="8" height="8" fill="#B54708" stroke="#B54708" stroke-width="1.5"/>
<text x="540" y="719" font-family="Helvetica,Arial,sans-serif" font-size="9" text-anchor="start" font-weight="normal" fill="#172B4D">decentralized_signal_sleeves</text>
<path d="M 880 710 L 885 719 L 875 719 Z" fill="#027A48" stroke="#027A48" stroke-width="1.5"/>
<text x="890" y="719" font-family="Helvetica,Arial,sans-serif" font-size="9" text-anchor="start" font-weight="normal" fill="#172B4D">full_factorial_catalog</text>
</svg>
