<svg xmlns="http://www.w3.org/2000/svg" width="1200" height="1200" viewBox="0 0 1200 1200" role="img" aria-labelledby="title desc">
<title id="title">Exact and heuristic compression solutions</title>
<desc id="desc">Retained cardinality; labels report exact OpLoss / signed GenLoss and search evaluations</desc>
<rect width="100%" height="100%" fill="#FFFFFF"/>
<style>.title{font:700 28px Helvetica,Arial,sans-serif;fill:#1F2937}.subtitle{font:15px Helvetica,Arial,sans-serif;fill:#6B7280}.panel{font:700 18px Helvetica,Arial,sans-serif;fill:#1F2937}.axis{font:13px Helvetica,Arial,sans-serif;fill:#6B7280}.note{font:12px Helvetica,Arial,sans-serif;fill:#6B7280}.direct{font:700 11px Menlo,monospace;fill:#1F2937}</style>
<text x="54" y="48" class="title">Exact and heuristic compression solutions</text>
<text x="54" y="76" class="subtitle">Retained cardinality; labels report exact OpLoss / signed GenLoss and search evaluations</text>
<g transform="translate(1114,36)" stroke="#9A6700" fill="none" stroke-width="1.5"><circle r="5"/><path d="M0,-14V-7 M0,7V14 M-14,0H-7 M7,0H14 M-10,-10L-5,-5 M5,5L10,10 M10,-10L5,-5 M-5,5L-10,10"/></g>
<text x="70.0" y="125" class="panel">A. Six-strategy benchmark</text>
<line x1="70.0" y1="965.0" x2="525.0" y2="965.0" stroke="#1F2937" stroke-width="1.2"/>
<line x1="70.0" y1="165.0" x2="70.0" y2="965.0" stroke="#1F2937" stroke-width="1.2"/>
<text x="297.5" y="1007.0" text-anchor="middle" class="axis"></text>
<text x="28.0" y="565.0" text-anchor="middle" class="axis" transform="rotate(-90 28.0 565.0)">Retained library size</text>
<line x1="64.0" y1="965.0" x2="70.0" y2="965.0" stroke="#1F2937"/>
<text x="60.0" y="969.0" text-anchor="end" class="note">0</text>
<line x1="64.0" y1="765.0" x2="70.0" y2="765.0" stroke="#1F2937"/>
<text x="60.0" y="769.0" text-anchor="end" class="note">1</text>
<line x1="64.0" y1="565.0" x2="70.0" y2="565.0" stroke="#1F2937"/>
<text x="60.0" y="569.0" text-anchor="end" class="note">2</text>
<line x1="64.0" y1="365.0" x2="70.0" y2="365.0" stroke="#1F2937"/>
<text x="60.0" y="369.0" text-anchor="end" class="note">3</text>
<line x1="64.0" y1="165.0" x2="70.0" y2="165.0" stroke="#1F2937"/>
<text x="60.0" y="169.0" text-anchor="end" class="note">4</text>
<rect x="95.57142857142857" y="365.0" width="46.0" height="600.0" fill="#E3A52B" stroke="#9A6700" stroke-width="1.2"/>
<text x="118.57142857142857" y="355.0" text-anchor="middle" class="direct">3</text>
<text x="118.57142857142857" y="338.0" text-anchor="middle" class="note">0 / 0</text>
<text x="118.57142857142857" y="988.0" text-anchor="middle" class="note">Exact</text>
<text x="118.57142857142857" y="1008.0" text-anchor="middle" class="note">n=32</text>
<rect x="167.14285714285714" y="365.0" width="46.0" height="600.0" fill="#4C78A8" stroke="#2F5D8A" stroke-width="1.2"/>
<text x="190.14285714285714" y="355.0" text-anchor="middle" class="direct">3</text>
<text x="190.14285714285714" y="338.0" text-anchor="middle" class="note">0 / 0</text>
<text x="190.14285714285714" y="988.0" text-anchor="middle" class="note">Greedy</text>
<text x="190.14285714285714" y="1008.0" text-anchor="middle" class="note">n=60</text>
<rect x="238.71428571428572" y="365.0" width="46.0" height="600.0" fill="#4C78A8" stroke="#2F5D8A" stroke-width="1.2"/>
<text x="261.7142857142857" y="355.0" text-anchor="middle" class="direct">3</text>
<text x="261.7142857142857" y="338.0" text-anchor="middle" class="note">0 / 0</text>
<text x="261.7142857142857" y="988.0" text-anchor="middle" class="note">Beam 2</text>
<text x="261.7142857142857" y="1008.0" text-anchor="middle" class="note">n=22</text>
<rect x="310.2857142857143" y="365.0" width="46.0" height="600.0" fill="#4C78A8" stroke="#2F5D8A" stroke-width="1.2"/>
<text x="333.2857142857143" y="355.0" text-anchor="middle" class="direct">3</text>
<text x="333.2857142857143" y="338.0" text-anchor="middle" class="note">0 / 0</text>
<text x="333.2857142857143" y="988.0" text-anchor="middle" class="note">Beam 4</text>
<text x="333.2857142857143" y="1008.0" text-anchor="middle" class="note">n=30</text>
<rect x="381.8571428571429" y="365.0" width="46.0" height="600.0" fill="#4C78A8" stroke="#2F5D8A" stroke-width="1.2"/>
<text x="404.8571428571429" y="355.0" text-anchor="middle" class="direct">3</text>
<text x="404.8571428571429" y="338.0" text-anchor="middle" class="note">0 / 0</text>
<text x="404.8571428571429" y="988.0" text-anchor="middle" class="note">Beam 8</text>
<text x="404.8571428571429" y="1008.0" text-anchor="middle" class="note">n=32</text>
<rect x="453.42857142857144" y="365.0" width="46.0" height="600.0" fill="#4C78A8" stroke="#2F5D8A" stroke-width="1.2"/>
<text x="476.42857142857144" y="355.0" text-anchor="middle" class="direct">3</text>
<text x="476.42857142857144" y="338.0" text-anchor="middle" class="note">0 / 0</text>
<text x="476.42857142857144" y="988.0" text-anchor="middle" class="note">Beam 16</text>
<text x="476.42857142857144" y="1008.0" text-anchor="middle" class="note">n=32</text>
<text x="635.0" y="125" class="panel">B. Eight-strategy expanded benchmark</text>
<line x1="635.0" y1="965.0" x2="1090.0" y2="965.0" stroke="#1F2937" stroke-width="1.2"/>
<line x1="635.0" y1="165.0" x2="635.0" y2="965.0" stroke="#1F2937" stroke-width="1.2"/>
<text x="862.5" y="1007.0" text-anchor="middle" class="axis"></text>
<text x="593.0" y="565.0" text-anchor="middle" class="axis" transform="rotate(-90 593.0 565.0)">Retained library size</text>
<line x1="629.0" y1="965.0" x2="635.0" y2="965.0" stroke="#1F2937"/>
<text x="625.0" y="969.0" text-anchor="end" class="note">0</text>
<line x1="629.0" y1="765.0" x2="635.0" y2="765.0" stroke="#1F2937"/>
<text x="625.0" y="769.0" text-anchor="end" class="note">1</text>
<line x1="629.0" y1="565.0" x2="635.0" y2="565.0" stroke="#1F2937"/>
<text x="625.0" y="569.0" text-anchor="end" class="note">2</text>
<line x1="629.0" y1="365.0" x2="635.0" y2="365.0" stroke="#1F2937"/>
<text x="625.0" y="369.0" text-anchor="end" class="note">3</text>
<line x1="629.0" y1="165.0" x2="635.0" y2="165.0" stroke="#1F2937"/>
<text x="625.0" y="169.0" text-anchor="end" class="note">4</text>
<rect x="660.5714285714286" y="565.0" width="46.0" height="400.0" fill="#E3A52B" stroke="#9A6700" stroke-width="1.2"/>
<text x="683.5714285714286" y="555.0" text-anchor="middle" class="direct">2</text>
<text x="683.5714285714286" y="538.0" text-anchor="middle" class="note">0.5 / 0</text>
<text x="683.5714285714286" y="988.0" text-anchor="middle" class="note">Exact</text>
<text x="683.5714285714286" y="1008.0" text-anchor="middle" class="note">n=128</text>
<rect x="732.1428571428571" y="565.0" width="46.0" height="400.0" fill="#4C78A8" stroke="#2F5D8A" stroke-width="1.2"/>
<text x="755.1428571428571" y="555.0" text-anchor="middle" class="direct">2</text>
<text x="755.1428571428571" y="538.0" text-anchor="middle" class="note">0.5 / 0</text>
<text x="755.1428571428571" y="988.0" text-anchor="middle" class="note">Greedy</text>
<text x="755.1428571428571" y="1008.0" text-anchor="middle" class="note">n=116</text>
<rect x="803.7142857142858" y="565.0" width="46.0" height="400.0" fill="#4C78A8" stroke="#2F5D8A" stroke-width="1.2"/>
<text x="826.7142857142858" y="555.0" text-anchor="middle" class="direct">2</text>
<text x="826.7142857142858" y="538.0" text-anchor="middle" class="note">0.5 / 0</text>
<text x="826.7142857142858" y="988.0" text-anchor="middle" class="note">Beam 2</text>
<text x="826.7142857142858" y="1008.0" text-anchor="middle" class="note">n=44</text>
<rect x="875.2857142857143" y="565.0" width="46.0" height="400.0" fill="#4C78A8" stroke="#2F5D8A" stroke-width="1.2"/>
<text x="898.2857142857143" y="555.0" text-anchor="middle" class="direct">2</text>
<text x="898.2857142857143" y="538.0" text-anchor="middle" class="note">0.5 / 0</text>
<text x="898.2857142857143" y="988.0" text-anchor="middle" class="note">Beam 4</text>
<text x="898.2857142857143" y="1008.0" text-anchor="middle" class="note">n=70</text>
<rect x="946.8571428571429" y="565.0" width="46.0" height="400.0" fill="#4C78A8" stroke="#2F5D8A" stroke-width="1.2"/>
<text x="969.8571428571429" y="555.0" text-anchor="middle" class="direct">2</text>
<text x="969.8571428571429" y="538.0" text-anchor="middle" class="note">0.5 / 0</text>
<text x="969.8571428571429" y="988.0" text-anchor="middle" class="note">Beam 8</text>
<text x="969.8571428571429" y="1008.0" text-anchor="middle" class="note">n=98</text>
<rect x="1018.4285714285714" y="565.0" width="46.0" height="400.0" fill="#4C78A8" stroke="#2F5D8A" stroke-width="1.2"/>
<text x="1041.4285714285716" y="555.0" text-anchor="middle" class="direct">2</text>
<text x="1041.4285714285716" y="538.0" text-anchor="middle" class="note">0.5 / 0</text>
<text x="1041.4285714285716" y="988.0" text-anchor="middle" class="note">Beam 16</text>
<text x="1041.4285714285716" y="1008.0" text-anchor="middle" class="note">n=121</text>
<text x="70" y="1130" class="note">Gold bars certify the exact optimum. Blue bars are deterministic heuristics; equal size does not imply equal losses or a general approximation guarantee.</text>
</svg>
