<svg xmlns="http://www.w3.org/2000/svg" width="960" height="600" viewBox="0 0 960 600" role="img">
<title>Walk-forward realized set coverage by frozen rule</title>
<desc>Mean next-year realized set coverage for each validation-only selection rule.</desc>
<rect width="100%" height="100%" fill="#ffffff"/>
<text x="480.0" y="36" text-anchor="middle" font-family="Arial,sans-serif" font-size="19" font-weight="700" fill="#17233c">Walk-forward realized set coverage by frozen rule</text>
<line x1="105.0" y1="452.2758620689655" x2="925.0" y2="452.2758620689655" stroke="#566273" stroke-width="1.4"/>
<line x1="105.0" y1="78.0" x2="105.0" y2="480.0" stroke="#566273" stroke-width="1.2"/>
<text x="24" y="279.0" transform="rotate(-90 24 279.0)" text-anchor="middle" font-family="Arial,sans-serif" font-size="15" fill="#364152">mean realized set coverage</text>
<rect x="176.5" y="105.72413793103449" width="62.0" height="346.55172413793105" rx="2" fill="#4472c4"/>
<text x="207.5" y="97.72413793103449" text-anchor="middle" font-family="Arial,sans-serif" font-size="12" fill="#17233c">0.070</text>
<text x="207.5" y="504.0" transform="rotate(30 207.5 504.0)" text-anchor="start" font-family="Arial,sans-serif" font-size="12" fill="#364152">coverage marginal</text>
<rect x="381.5" y="443.1037792398495" width="62.0" height="9.17208282911605" rx="2" fill="#70ad47"/>
<text x="412.5" y="435.1037792398495" text-anchor="middle" font-family="Arial,sans-serif" font-size="12" fill="#17233c">0.002</text>
<text x="412.5" y="504.0" transform="rotate(30 412.5 504.0)" text-anchor="start" font-family="Arial,sans-serif" font-size="12" fill="#364152">current belief improvement</text>
<rect x="586.5" y="393.67779723462064" width="62.0" height="58.59806483434488" rx="2" fill="#ed7d31"/>
<text x="617.5" y="385.67779723462064" text-anchor="middle" font-family="Arial,sans-serif" font-size="12" fill="#17233c">0.012</text>
<text x="617.5" y="504.0" transform="rotate(30 617.5 504.0)" text-anchor="start" font-family="Arial,sans-serif" font-size="12" fill="#364152">average trailing score</text>
<rect x="791.5" y="452.2758620689655" width="62.0" height="1.0" rx="2" fill="#a5a5a5"/>
<text x="822.5" y="444.2758620689655" text-anchor="middle" font-family="Arial,sans-serif" font-size="12" fill="#17233c">0.000</text>
<text x="822.5" y="504.0" transform="rotate(30 822.5 504.0)" text-anchor="start" font-family="Arial,sans-serif" font-size="12" fill="#364152">raw parameter novelty</text>
<text x="936" y="582" text-anchor="end" font-family="Arial,sans-serif" font-size="11" fill="#6b7280">Mechanism illustration; not an alpha estimate</text>
</svg>
