<svg xmlns="http://www.w3.org/2000/svg" width="1200" height="720" viewBox="0 0 1200 720" role="img">
<rect width="1200" height="720" fill="#FFFFFF"/>
<text x="64" y="52" font-family="Helvetica,Arial,sans-serif" font-size="28" font-weight="700" fill="#101828">Randomized-library v2 compression and loss</text>
<text x="64" y="80" font-family="Helvetica,Arial,sans-serif" font-size="14" fill="#475467">Fixed N=1,024; every source and compressed state has a raw witness</text>
<text x="64" y="148" font-family="Helvetica,Arial,sans-serif" font-size="16" fill="#344054">frontier_only: compression</text>
<rect x="260" y="125" width="820" height="30" rx="5" fill="#F2F4F7"/>
<rect x="260" y="125" width="820.0" height="30" rx="5" fill="#F79009"/>
<text x="1090.0" y="147" font-family="Helvetica,Arial,sans-serif" font-size="14" fill="#344054">0.417</text>
<text x="64" y="230" font-family="Helvetica,Arial,sans-serif" font-size="16" fill="#344054">frontier_only: positive loss</text>
<rect x="260" y="207" width="820" height="30" rx="5" fill="#F2F4F7"/>
<rect x="260" y="207" width="764.90625" height="30" rx="5" fill="#D92D20"/>
<text x="1034.90625" y="229" font-family="Helvetica,Arial,sans-serif" font-size="14" fill="#344054">0.389</text>
<text x="64" y="312" font-family="Helvetica,Arial,sans-serif" font-size="16" fill="#344054">innovation_safe: compression</text>
<rect x="260" y="289" width="820" height="30" rx="5" fill="#F2F4F7"/>
<rect x="260" y="289" width="246.0" height="30" rx="5" fill="#1570EF"/>
<text x="516.0" y="311" font-family="Helvetica,Arial,sans-serif" font-size="14" fill="#344054">0.125</text>
<text x="64" y="394" font-family="Helvetica,Arial,sans-serif" font-size="16" fill="#344054">innovation_safe: positive loss</text>
<rect x="260" y="371" width="820" height="30" rx="5" fill="#F2F4F7"/>
<rect x="260" y="371" width="0.0" height="30" rx="5" fill="#039855"/>
<text x="270.0" y="393" font-family="Helvetica,Arial,sans-serif" font-size="14" fill="#344054">0.000</text>
<text x="64" y="690" font-family="Helvetica,Arial,sans-serif" font-size="12" fill="#667085">Exact rational estimates; decimal rendering is presentation only. Registered finite-generator simulation, not population inference.</text>
</svg>
