<svg xmlns="http://www.w3.org/2000/svg" width="860" height="500" viewBox="0 0 860 500" role="img" aria-labelledby="title desc">
<title id="title">Net innovation margin and bridge elasticity</title>
<desc id="desc">Exact canonical bridge elasticities at registered duration three and gross descendant value one.</desc>
<metadata data-experiment="unified-elasticity-switching-v1" data-sources="experiments/results/summaries/unified_elasticity_switching_v1_bridge.csv">Exact Rational{BigInt} source rows; Float64 coordinates are secondary.</metadata>
<rect width="100%" height="100%" fill="#ffffff"/>
<style>text{font-family:-apple-system,BlinkMacSystemFont,'Segoe UI',sans-serif;fill:#172a3a}.title{font-size:20px;font-weight:650}.subtitle{font-size:12px;fill:#66717e}.axis{font-size:11px;fill:#66717e}.label{font-size:12px}.small{font-size:10px;fill:#66717e}</style>
<text x="60" y="38" class="title">Net innovation margin versus elasticity</text>
<text x="60" y="59" class="subtitle">A=1 and d=3; normalized margin m=M/A is the boundary coordinate.</text>
<text x="80" y="90" class="label" font-weight="600">Exact bridge-margin elasticities</text>
<line x1="80" y1="420" x2="730" y2="420" stroke="#66717e"/>
<line x1="80" y1="100" x2="80" y2="420" stroke="#66717e"/>
<line x1="80.0" y1="100" x2="80.0" y2="420" stroke="#e7edf2"/>
<line x1="80" y1="100.0" x2="730" y2="100.0" stroke="#e7edf2"/>
<text x="80.0" y="436" text-anchor="middle" class="axis">0.062</text>
<text x="73" y="104.0" text-anchor="end" class="axis">48</text>
<line x1="242.5" y1="100" x2="242.5" y2="420" stroke="#e7edf2"/>
<line x1="80" y1="180.0" x2="730" y2="180.0" stroke="#e7edf2"/>
<text x="242.5" y="436" text-anchor="middle" class="axis">0.3</text>
<text x="73" y="184.0" text-anchor="end" class="axis">36</text>
<line x1="405.0" y1="100" x2="405.0" y2="420" stroke="#e7edf2"/>
<line x1="80" y1="260.0" x2="730" y2="260.0" stroke="#e7edf2"/>
<text x="405.0" y="436" text-anchor="middle" class="axis">0.53</text>
<text x="73" y="264.0" text-anchor="end" class="axis">24</text>
<line x1="567.5" y1="100" x2="567.5" y2="420" stroke="#e7edf2"/>
<line x1="80" y1="340.0" x2="730" y2="340.0" stroke="#e7edf2"/>
<text x="567.5" y="436" text-anchor="middle" class="axis">0.77</text>
<text x="73" y="344.0" text-anchor="end" class="axis">12</text>
<line x1="730.0" y1="100" x2="730.0" y2="420" stroke="#e7edf2"/>
<line x1="80" y1="420.0" x2="730" y2="420.0" stroke="#e7edf2"/>
<text x="730.0" y="436" text-anchor="middle" class="axis">1</text>
<text x="73" y="424.0" text-anchor="end" class="axis">0</text>
<polyline points="80.0,100.0 123.33333333333334,260.0 210.0,340.0 296.66666666666663,366.6666666666667 383.3333333333333,380.0 470.0,388.0 556.6666666666667,393.3333333333333 643.3333333333334,397.14285714285717 730.0,400.0" fill="none" stroke="#2f5d8a" stroke-width="2.8" stroke-dasharray=""/>
<circle cx="80.0" cy="100.0" r="3" fill="#2f5d8a"><title>discount / survival: M=1//16, elasticity=48//1</title></circle>
<circle cx="123.33333333333334" cy="260.0" r="3" fill="#2f5d8a"><title>discount / survival: M=1//8, elasticity=24//1</title></circle>
<circle cx="210.0" cy="340.0" r="3" fill="#2f5d8a"><title>discount / survival: M=1//4, elasticity=12//1</title></circle>
<circle cx="296.66666666666663" cy="366.6666666666667" r="3" fill="#2f5d8a"><title>discount / survival: M=3//8, elasticity=8//1</title></circle>
<circle cx="383.3333333333333" cy="380.0" r="3" fill="#2f5d8a"><title>discount / survival: M=1//2, elasticity=6//1</title></circle>
<circle cx="470.0" cy="388.0" r="3" fill="#2f5d8a"><title>discount / survival: M=5//8, elasticity=24//5</title></circle>
<circle cx="556.6666666666667" cy="393.3333333333333" r="3" fill="#2f5d8a"><title>discount / survival: M=3//4, elasticity=4//1</title></circle>
<circle cx="643.3333333333334" cy="397.14285714285717" r="3" fill="#2f5d8a"><title>discount / survival: M=7//8, elasticity=24//7</title></circle>
<circle cx="730.0" cy="400.0" r="3" fill="#2f5d8a"><title>discount / survival: M=1//1, elasticity=3//1</title></circle>
<polyline points="80.0,313.33333333333337 123.33333333333334,366.6666666666667 210.0,393.3333333333333 296.66666666666663,402.22222222222223 383.3333333333333,406.6666666666667 470.0,409.3333333333333 556.6666666666667,411.1111111111111 643.3333333333334,412.38095238095235 730.0,413.3333333333333" fill="none" stroke="#d39b2a" stroke-width="2.8" stroke-dasharray="9 5"/>
<circle cx="80.0" cy="313.33333333333337" r="3" fill="#d39b2a"><title>admission / payoff: M=1//16, elasticity=16//1</title></circle>
<circle cx="123.33333333333334" cy="366.6666666666667" r="3" fill="#d39b2a"><title>admission / payoff: M=1//8, elasticity=8//1</title></circle>
<circle cx="210.0" cy="393.3333333333333" r="3" fill="#d39b2a"><title>admission / payoff: M=1//4, elasticity=4//1</title></circle>
<circle cx="296.66666666666663" cy="402.22222222222223" r="3" fill="#d39b2a"><title>admission / payoff: M=3//8, elasticity=8//3</title></circle>
<circle cx="383.3333333333333" cy="406.6666666666667" r="3" fill="#d39b2a"><title>admission / payoff: M=1//2, elasticity=2//1</title></circle>
<circle cx="470.0" cy="409.3333333333333" r="3" fill="#d39b2a"><title>admission / payoff: M=5//8, elasticity=8//5</title></circle>
<circle cx="556.6666666666667" cy="411.1111111111111" r="3" fill="#d39b2a"><title>admission / payoff: M=3//4, elasticity=4//3</title></circle>
<circle cx="643.3333333333334" cy="412.38095238095235" r="3" fill="#d39b2a"><title>admission / payoff: M=7//8, elasticity=8//7</title></circle>
<circle cx="730.0" cy="413.3333333333333" r="3" fill="#d39b2a"><title>admission / payoff: M=1//1, elasticity=1//1</title></circle>
<polyline points="80.0,320.0 123.33333333333334,373.3333333333333 210.0,400.0 296.66666666666663,408.8888888888889 383.3333333333333,413.3333333333333 470.0,416.0 556.6666666666667,417.77777777777777 643.3333333333334,419.04761904761904 730.0,420.0" fill="none" stroke="#c65d32" stroke-width="2.8" stroke-dasharray="2 4"/>
<circle cx="80.0" cy="320.0" r="3" fill="#c65d32"><title>|research-cost elasticity|: M=1//16, elasticity=15//1</title></circle>
<circle cx="123.33333333333334" cy="373.3333333333333" r="3" fill="#c65d32"><title>|research-cost elasticity|: M=1//8, elasticity=7//1</title></circle>
<circle cx="210.0" cy="400.0" r="3" fill="#c65d32"><title>|research-cost elasticity|: M=1//4, elasticity=3//1</title></circle>
<circle cx="296.66666666666663" cy="408.8888888888889" r="3" fill="#c65d32"><title>|research-cost elasticity|: M=3//8, elasticity=5//3</title></circle>
<circle cx="383.3333333333333" cy="413.3333333333333" r="3" fill="#c65d32"><title>|research-cost elasticity|: M=1//2, elasticity=1//1</title></circle>
<circle cx="470.0" cy="416.0" r="3" fill="#c65d32"><title>|research-cost elasticity|: M=5//8, elasticity=3//5</title></circle>
<circle cx="556.6666666666667" cy="417.77777777777777" r="3" fill="#c65d32"><title>|research-cost elasticity|: M=3//4, elasticity=1//3</title></circle>
<circle cx="643.3333333333334" cy="419.04761904761904" r="3" fill="#c65d32"><title>|research-cost elasticity|: M=7//8, elasticity=1//7</title></circle>
<circle cx="730.0" cy="420.0" r="3" fill="#c65d32"><title>|research-cost elasticity|: M=1//1, elasticity=0//1</title></circle>
<line x1="385" y1="87" x2="409" y2="87" stroke="#2f5d8a" stroke-width="2.8" stroke-dasharray=""/>
<text x="414" y="91" font-size="10" fill="#2f5d8a">discount / survival</text>
<line x1="540" y1="87" x2="564" y2="87" stroke="#d39b2a" stroke-width="2.8" stroke-dasharray="9 5"/>
<text x="569" y="91" font-size="10" fill="#d39b2a">admission / payoff</text>
<line x1="695" y1="87" x2="719" y2="87" stroke="#c65d32" stroke-width="2.8" stroke-dasharray="2 4"/>
<text x="724" y="91" font-size="10" fill="#c65d32">|research-cost elasticity|</text>
<text x="405" y="474" text-anchor="middle" class="axis">Positive net innovation margin M (gross value fixed at 1)</text>
<text x="20" y="260" text-anchor="middle" class="axis" transform="rotate(-90 20 260)">Absolute point elasticity</text>
</svg>
